<svg xmlns="http://www.w3.org/2000/svg" width="82.36" height="82.356" viewBox="0 0 82.36 82.356">
  <g id="Group_57345" data-name="Group 57345" transform="translate(-4143.778 -90.906)">
    <path id="Path_41279" data-name="Path 41279" d="M104.757,967.966a41.178,41.178,0,1,1,0,58.235,41.179,41.179,0,0,1,0-58.235" transform="translate(4051.082 -865)" fill="#ffcb4b"/>
    <path id="Path_41280" data-name="Path 41280" d="M162.356,968.4a41.185,41.185,0,0,1-56.244,57.278A41.182,41.182,0,1,0,162.356,968.4" transform="translate(4044.147 -871.456)" fill="#fdc453"/>
    <path id="Path_41281" data-name="Path 41281" d="M101.243,1004.686a38.231,38.231,0,0,1,68.538-23.306,38.235,38.235,0,1,0-63.458,42.361,38.055,38.055,0,0,1-5.08-19.055" transform="translate(4048.135 -868.255)" fill="#ffd77f"/>
    <path id="Path_41282" data-name="Path 41282" d="M173.089,1072.079a13.066,13.066,0,0,0-8.7-3.114,13.745,13.745,0,0,0-8.637,3.132,12.1,12.1,0,0,0-2.889,3.575,9.782,9.782,0,0,0-1.13,4.329.794.794,0,0,0,1.423.494,18.1,18.1,0,0,1,2.47-2.676,13.95,13.95,0,0,1,2.746-1.833,13.772,13.772,0,0,1,6.059-1.463,12.621,12.621,0,0,1,5.985,1.424,15.511,15.511,0,0,1,5.206,4.542.795.795,0,0,0,1.427-.493,10.948,10.948,0,0,0-3.965-7.918" transform="translate(4020.564 -923.438)" fill="#5e4939"/>
    <path id="Path_41283" data-name="Path 41283" d="M221.034,1045.234h0c-.54-.158-1.065-.3-1.6-.454-1.115-.312-2.167-.607-3.183-.959a28.344,28.344,0,0,1-4.194-1.782,24.9,24.9,0,0,1-3.788-2.458,37.4,37.4,0,0,1-3.612-3.311.4.4,0,0,0-.682.3,9.729,9.729,0,0,0,1.992,5.212,12.68,12.68,0,0,0,4.3,3.656,13.4,13.4,0,0,0,5.191,1.492l.21.013c.25.013.5.02.74.02a10.888,10.888,0,0,0,4.688-.985.4.4,0,0,0-.058-.744" transform="translate(3993.564 -906.478)" fill="#303030"/>
    <path id="Path_41284" data-name="Path 41284" d="M133.107,1036.183a.4.4,0,0,0-.444.084,37.359,37.359,0,0,1-3.613,3.312,24.877,24.877,0,0,1-3.787,2.457,28.334,28.334,0,0,1-4.2,1.783c-1.015.352-2.067.647-3.2.966-.513.143-1.037.291-1.577.447h0a.4.4,0,0,0-.058.743,10.888,10.888,0,0,0,4.688.985q.365,0,.74-.02l.21-.014a13.387,13.387,0,0,0,5.19-1.492,12.686,12.686,0,0,0,4.3-3.657,9.722,9.722,0,0,0,1.991-5.211.4.4,0,0,0-.238-.385" transform="translate(4039.038 -906.477)" fill="#303030"/>
  </g>
</svg>
