<svg xmlns="http://www.w3.org/2000/svg" width="23.445" height="27.262" viewBox="0 0 23.445 27.262">
  <g id="Group_57466" data-name="Group 57466" transform="translate(-348.75 -784.751)">
    <g id="Group_52059" data-name="Group 52059" transform="translate(349 783)">
      <g id="reshot-icon-profile-avatar-QKH4XD2YFV" transform="translate(0 2)">
        <g id="Group_7762" data-name="Group 7762" transform="translate(4.362 20.165)">
          <g id="Group_7760" data-name="Group 7760">
            <path id="Path_5634" data-name="Path 5634" d="M8.444,29.944A.445.445,0,0,1,8,29.5V25.944a.444.444,0,1,1,.889,0V29.5A.445.445,0,0,1,8.444,29.944Z" transform="translate(-8 -25.5)" fill="#0e5f02" stroke="#0e5f02" stroke-width="0.5"/>
          </g>
          <g id="Group_7761" data-name="Group 7761" transform="translate(13.333)">
            <path id="Path_5635" data-name="Path 5635" d="M23.444,29.944A.445.445,0,0,1,23,29.5V25.944a.444.444,0,1,1,.889,0V29.5A.445.445,0,0,1,23.444,29.944Z" transform="translate(-23 -25.5)" fill="#0e5f02" stroke="#0e5f02" stroke-width="0.5"/>
          </g>
        </g>
        <g id="Group_7764" data-name="Group 7764" transform="translate(6.828 13.09)">
          <path id="Path_5637" data-name="Path 5637" d="M15.364,21.275a4.937,4.937,0,0,1-4.555-3.019.444.444,0,0,1,.819-.346,4.057,4.057,0,0,0,7.51-.088.444.444,0,1,1,.826.326A4.918,4.918,0,0,1,15.364,21.275Z" transform="translate(-10.774 -17.541)" fill="#0e5f02" stroke="#0e5f02" stroke-width="0.5"/>
        </g>
      </g>
    </g>
    <path id="Path_5633" data-name="Path 5633" d="M14.627,1.835c2.627,0,4.757,2.683,4.757,5.993a6.315,6.315,0,0,1-2.58,5.329,1.285,1.285,0,0,0-.6,1.074v.929a1.307,1.307,0,0,0,1.307,1.307h.615a7.019,7.019,0,0,1,7.019,7.019V26.82H3.981v-3.3a7.071,7.071,0,0,1,7.05-7.05h.676a1.307,1.307,0,0,0,1.307-1.307v-.947a1.29,1.29,0,0,0-.59-1.073A6.328,6.328,0,0,1,9.871,7.828c0-3.311,2.129-5.993,4.756-5.993m0-.889c-3.113,0-5.646,3.087-5.646,6.882a7.216,7.216,0,0,0,2.953,6.054.4.4,0,0,1,.191.331v.947a.419.419,0,0,1-.419.419h-.676a7.948,7.948,0,0,0-7.939,7.939v3.3a.889.889,0,0,0,.889.889H25.148a.889.889,0,0,0,.889-.889V23.486a7.917,7.917,0,0,0-7.908-7.908h-.615a.419.419,0,0,1-.419-.419v-.929a.4.4,0,0,1,.191-.328,7.2,7.2,0,0,0,2.986-6.074c0-3.8-2.532-6.882-5.645-6.882Z" transform="translate(345.908 784.055)" fill="#0e5f02" stroke="#0e5f02" stroke-width="0.5"/>
  </g>
</svg>
