<svg xmlns="http://www.w3.org/2000/svg" width="21.736" height="23" viewBox="0 0 21.736 23">
  <path id="order-svgrepo-com" d="M29.98,23.3a.5.5,0,0,1-.387-.176.483.483,0,0,1-.141-.4L30.561,5.677a.523.523,0,0,1,.528-.493h4.648v-.07A4.346,4.346,0,0,1,37,2.05,4.4,4.4,0,0,1,40.068.8,4.339,4.339,0,0,1,44.4,5.131c0,.018-.018.035-.018.053V5.2h4.665a.523.523,0,0,1,.528.493l1.092,16.919a.387.387,0,0,1,.018.141.56.56,0,0,1-.546.546Zm.563-1.056H49.575L48.554,6.258H44.381V7.525H44.4a.951.951,0,0,1,.44.792.986.986,0,1,1-1.972,0,.951.951,0,0,1,.44-.792h.018V6.258H36.793V7.525h.018a.951.951,0,0,1,.44.792.986.986,0,1,1-1.972,0,.951.951,0,0,1,.44-.792h.018V6.258H31.564Zm9.525-20.37a3.28,3.28,0,0,0-3.275,3.275v.07H43.36l-.018-.035V5.149a3.28,3.28,0,0,0-3.275-3.275Z" transform="translate(-29.198 -0.55)" fill="#0e5f02" stroke="#0e5f02" stroke-width="0.5"/>
</svg>
