<svg xmlns="http://www.w3.org/2000/svg" width="22.789" height="22.789" viewBox="0 0 22.789 22.789">
  <path id="dashboard-svgrepo-com_1_" data-name="dashboard-svgrepo-com (1)" d="M4,5.331A1.331,1.331,0,0,1,5.331,4h5.322a1.331,1.331,0,0,1,1.331,1.331v6.653a1.331,1.331,0,0,1-1.331,1.331H5.331A1.331,1.331,0,0,1,4,11.983Zm13.306,0A1.331,1.331,0,0,1,18.636,4h5.322a1.331,1.331,0,0,1,1.331,1.331V7.992a1.331,1.331,0,0,1-1.331,1.331H18.636a1.331,1.331,0,0,1-1.331-1.331ZM4,19.967a1.331,1.331,0,0,1,1.331-1.331h5.322a1.331,1.331,0,0,1,1.331,1.331v3.992a1.331,1.331,0,0,1-1.331,1.331H5.331A1.331,1.331,0,0,1,4,23.958Zm13.306-3.992a1.331,1.331,0,0,1,1.331-1.331h5.322a1.331,1.331,0,0,1,1.331,1.331v7.983a1.331,1.331,0,0,1-1.331,1.331H18.636a1.331,1.331,0,0,1-1.331-1.331Z" transform="translate(-3.25 -3.25)" fill="none" stroke="#fff" stroke-width="1.5"/>
</svg>
