<svg xmlns="http://www.w3.org/2000/svg" width="13.262" height="13" viewBox="0 0 13.262 13">
  <path id="phone-add-svgrepo-com" d="M12.019.995a.608.608,0,0,1,.608.608V2.821h1.219a.608.608,0,0,1,0,1.216H12.626V5.256a.608.608,0,1,1-1.216,0V4.037H10.192a.608.608,0,1,1,0-1.216h1.219V1.6A.608.608,0,0,1,12.019.995ZM5.578,2.786a1.226,1.226,0,0,0-.831-.34,2.557,2.557,0,0,0-1.458.844c-.667.667-.991,1.165-.85,1.921.162.87.955,2.2,3.141,4.383s3.521,2.987,4.4,3.153a1.5,1.5,0,0,0,.991-.12,3.414,3.414,0,0,0,.908-.732,4.1,4.1,0,0,0,.589-.722,2.221,2.221,0,0,0,.265-.746,1.226,1.226,0,0,0-.34-.831,6.683,6.683,0,0,0-1.043-1.068.733.733,0,0,0-.917.009l-.923.691a2.09,2.09,0,0,1-2.73-.2L6.146,8.4a2.09,2.09,0,0,1-.2-2.73l.691-.923a.733.733,0,0,0,.009-.917A6.681,6.681,0,0,0,5.578,2.786ZM6.3,1.807A7.869,7.869,0,0,1,7.575,3.045a1.947,1.947,0,0,1,.035,2.43L6.919,6.4a.875.875,0,0,0,.087,1.142l.629.629a.875.875,0,0,0,1.142.087L9.7,7.564a1.947,1.947,0,0,1,2.43.034,7.866,7.866,0,0,1,1.238,1.276,2.351,2.351,0,0,1,.555,1.785,3.426,3.426,0,0,1-.412,1.132,5.25,5.25,0,0,1-.757.943,4.58,4.58,0,0,1-1.249.982,2.71,2.71,0,0,1-1.754.223c-1.272-.241-2.837-1.3-5.028-3.487S1.481,6.7,1.244,5.434a3.213,3.213,0,0,1,1.185-3A3.754,3.754,0,0,1,4.515,1.252,2.351,2.351,0,0,1,6.3,1.807Z" transform="translate(-1.191 -0.995)" fill="#0e5f02" fill-rule="evenodd"/>
</svg>
