<svg xmlns="http://www.w3.org/2000/svg" width="30.358" height="16.551" viewBox="0 0 30.358 16.551">
  <path id="express-delivery-truck-svgrepo-com" d="M13.981,13.947a2.382,2.382,0,1,0,2.382,2.382A2.381,2.381,0,0,0,13.981,13.947Zm0,3.294a.912.912,0,1,1,.912-.912A.917.917,0,0,1,13.981,17.241Zm13.346-3.277a2.382,2.382,0,1,0,2.382,2.382A2.381,2.381,0,0,0,27.328,13.964Zm0,3.294a.912.912,0,1,1,.912-.912A.917.917,0,0,1,27.328,17.258ZM8.517,15a.889.889,0,0,0,.875.858h1.237c.1,0,.189-.12.206-.206a3.106,3.106,0,0,1,3.147-2.519,3.088,3.088,0,0,1,3.127,2.523.189.189,0,0,0,.176.173h2.37V2.677H8.517Zm23.135-.894h-.515V11.838A1.307,1.307,0,0,0,29.8,10.5H27.324a.23.23,0,0,1-.148-.062L23.321,6.684a.87.87,0,0,0-.586-.334H20.483v9.479h3.555a.219.219,0,0,0,.194-.178,3.138,3.138,0,0,1,3.1-2.62,3.174,3.174,0,0,1,3.127,2.625.33.33,0,0,0,.27.2h.206a.96.96,0,0,0,.927-.93v-.641A.205.205,0,0,0,31.652,14.105ZM25.365,10.5H21.758a.22.22,0,0,1-.206-.206l0-2.676a.226.226,0,0,1,.209-.21h.721a.468.468,0,0,1,.2.092l2.788,2.691C25.572,10.319,25.53,10.5,25.365,10.5ZM7.332,8.246H3.422V7.3h3.91Zm0,2.607H2V11.8H7.332Zm0-1.777h-4.5v.948h4.5Z" transform="translate(-1.75 -2.427)" stroke="#000" stroke-width="0.5"/>
</svg>
