<svg xmlns="http://www.w3.org/2000/svg" width="82.359" height="82.358" viewBox="0 0 82.359 82.358">
  <g id="Group_57342" data-name="Group 57342" transform="translate(-3916.306 50.016)">
    <path id="Path_41304" data-name="Path 41304" d="M104.762,88.044a41.179,41.179,0,1,1,0,58.236,41.179,41.179,0,0,1,0-58.236" transform="translate(3823.604 -126)" fill="#ffcb4b"/>
    <path id="Path_41305" data-name="Path 41305" d="M162.357,88.469a41.186,41.186,0,0,1-56.246,57.279,41.183,41.183,0,1,0,56.246-57.279" transform="translate(3816.673 -132.453)" fill="#fdc453"/>
    <path id="Path_41306" data-name="Path 41306" d="M101.243,124.759a38.232,38.232,0,0,1,68.54-23.306,38.235,38.235,0,1,0-63.459,42.362,38.057,38.057,0,0,1-5.081-19.056" transform="translate(3820.66 -129.252)" fill="#ffd77f"/>
    <path id="Path_41307" data-name="Path 41307" d="M146.325,135.067c0,2.825-1.359,5.114-3.034,5.114s-3.034-2.29-3.034-5.114,1.359-5.114,3.034-5.114,3.034,2.29,3.034,5.114" transform="translate(3799.024 -153.896)" fill="#303030"/>
    <path id="Path_41308" data-name="Path 41308" d="M209.129,135.067c0,2.825-1.359,5.114-3.034,5.114s-3.035-2.29-3.035-5.114,1.359-5.114,3.035-5.114,3.034,2.29,3.034,5.114" transform="translate(3766.562 -153.896)" fill="#303030"/>
    <path id="Path_41309" data-name="Path 41309" d="M120.664,169.28a27.85,27.85,0,0,0,55.342,0Z" transform="translate(3809.151 -174.223)" fill="#695342"/>
    <path id="Path_41310" data-name="Path 41310" d="M138.376,200.321a27.824,27.824,0,0,0,37.575.6l-.256-.6c-18.582-9.061-37.066-.126-37.319,0" transform="translate(3799.996 -188.173)" fill="#f06669"/>
  </g>
</svg>
