<svg xmlns="http://www.w3.org/2000/svg" width="82.359" height="82.356" viewBox="0 0 82.359 82.356">
  <g id="Group_57335" data-name="Group 57335" transform="translate(-3903.004 189.076)">
    <path id="Path_41363" data-name="Path 41363" d="M104.758,741.985a41.178,41.178,0,1,1,0,58.235,41.179,41.179,0,0,1,0-58.235" transform="translate(3810.306 -919)" fill="#ffcb4b"/>
    <path id="Path_41364" data-name="Path 41364" d="M162.356,742.414a41.185,41.185,0,0,1-56.244,57.278,41.182,41.182,0,1,0,56.244-57.278" transform="translate(3803.372 -925.456)" fill="#fdc453"/>
    <path id="Path_41365" data-name="Path 41365" d="M101.243,778.7A38.231,38.231,0,0,1,169.781,755.4a38.235,38.235,0,1,0-63.458,42.361,38.055,38.055,0,0,1-5.08-19.055" transform="translate(3807.36 -922.255)" fill="#ffd77f"/>
    <path id="Path_41366" data-name="Path 41366" d="M140.523,827.633a1.359,1.359,0,0,0-2.211,1.482,20.641,20.641,0,0,0,38.172.379,1.357,1.357,0,0,0-2.194-1.5c-6.027,5.842-18.821,14.157-33.767-.363" transform="translate(3786.784 -969.298)" fill="#5e4939"/>
    <path id="Path_41367" data-name="Path 41367" d="M146.325,794.438c0,2.824-1.358,5.114-3.034,5.114s-3.034-2.29-3.034-5.114,1.359-5.114,3.034-5.114,3.034,2.289,3.034,5.114" transform="translate(3785.723 -949.703)" fill="#303030"/>
    <path id="Path_41368" data-name="Path 41368" d="M209.128,794.438c0,2.824-1.359,5.114-3.034,5.114s-3.034-2.29-3.034-5.114,1.358-5.114,3.034-5.114,3.034,2.289,3.034,5.114" transform="translate(3753.261 -949.703)" fill="#303030"/>
  </g>
</svg>
