<svg xmlns="http://www.w3.org/2000/svg" width="16.908" height="21.582" viewBox="0 0 16.908 21.582">
  <g id="Group_57002" data-name="Group 57002" transform="translate(2472.408 -1528)">
    <path id="Path_40693" data-name="Path 40693" d="M185.429,66.124h-.905v-.234c0-3.738-1.723-4.965-3.008-5.841-.759-.526-1.139-.818-1.139-1.373s.38-.818,1.139-1.373c1.256-.876,3.008-2.1,3.008-5.841V51.23h.905a1.664,1.664,0,0,0,1.664-1.664,1.683,1.683,0,0,0-1.664-1.664H171.85a1.664,1.664,0,0,0-1.664,1.664,1.683,1.683,0,0,0,1.664,1.664h.905v.263c0,3.738,1.723,4.965,3.008,5.841.759.526,1.139.818,1.139,1.373s-.38.818-1.139,1.373c-1.256.876-3.008,2.1-3.008,5.841v.234h-.905a1.664,1.664,0,0,0,0,3.329h13.579a1.664,1.664,0,0,0,1.664-1.664A1.689,1.689,0,0,0,185.429,66.124Zm.555-16.558a.554.554,0,0,1-.555.555h-13.58a.555.555,0,1,1,0-1.11h13.579a.574.574,0,0,1,.555.555Zm-7.973,9.111c0-1.139-.818-1.723-1.606-2.278-1.2-.818-2.541-1.781-2.541-4.936V51.23h9.52v.263c0,3.154-1.343,4.118-2.541,4.936-.789.555-1.606,1.139-1.606,2.278s.818,1.723,1.606,2.278c1.2.818,2.541,1.781,2.541,4.936v.234h-9.52V65.92c0-3.154,1.343-4.118,2.541-4.936C177.193,60.4,178.011,59.845,178.011,58.677Zm7.973,9.14a.554.554,0,0,1-.555.555h-13.58a.555.555,0,1,1,0-1.11h13.579a.554.554,0,0,1,.555.555Z" transform="translate(-2642.593 1480.099)"/>
  </g>
</svg>
