<svg xmlns="http://www.w3.org/2000/svg" width="92.488" height="95.883" viewBox="0 0 92.488 95.883">
  <g id="Group_57503" data-name="Group 57503" transform="translate(-240.717 -335)">
    <g id="Group_56976" data-name="Group 56976" transform="translate(-2719.258 104.87)">
      <path id="Path_40623" data-name="Path 40623" d="M3052.463,237.137c0,3.87-7.007,14.993-7.007,14.993s-7.006-11.122-7.006-14.993a7.007,7.007,0,1,1,14.013,0Z" transform="translate(0 0)" fill="#80b918"/>
      <path id="Path_40624" data-name="Path 40624" d="M3072.06,259.234a4.525,4.525,0,1,1-4.525-4.524A4.524,4.524,0,0,1,3072.06,259.234Z" transform="translate(-22.079 -22.097)" fill="#fff"/>
    </g>
    <g id="Group_56990" data-name="Group 56990" transform="translate(-2797.733 152.87)">
      <path id="Path_40623-2" data-name="Path 40623" d="M3068.779,245.3c0,8.377-15.166,32.45-15.166,32.45s-15.164-24.071-15.164-32.45a15.165,15.165,0,1,1,30.329,0Z" transform="translate(0 0)" fill="#80b918"/>
      <path id="Path_40624-2" data-name="Path 40624" d="M3082.6,264.5a9.793,9.793,0,1,1-9.793-9.791A9.792,9.792,0,0,1,3082.6,264.5Z" transform="translate(-19.19 -19.206)" fill="#fff"/>
    </g>
    <path id="Path_40678" data-name="Path 40678" d="M-2678.8,718c-20.561,10.1-58.633,18.7-30.869,28.769s-35.123,20.705-18.792,30.276-20.886,14.343-20.886,14.343" transform="translate(3005 -361)" fill="none" stroke="#df8b63" stroke-width="1" stroke-dasharray="4"/>
  </g>
</svg>
