<svg xmlns="http://www.w3.org/2000/svg" width="10.286" height="13.604" viewBox="0 0 10.286 13.604">
  <g id="location-svgrepo-com_4_" data-name="location-svgrepo-com (4)" transform="translate(-7.428 -3.25)">
    <path id="Path_29920" data-name="Path 29920" d="M12.575,16.6a.332.332,0,0,1-.275-.146l-3.911-5.8a4.593,4.593,0,0,1-.711-2.447A4.811,4.811,0,0,1,12.571,3.5a4.811,4.811,0,0,1,4.893,4.712,4.575,4.575,0,0,1-.7,2.434L12.85,16.458a.329.329,0,0,1-.274.146Zm0-12.441a4.147,4.147,0,0,0-4.23,4.049,3.912,3.912,0,0,0,.6,2.085l3.63,5.381,3.632-5.393a3.9,3.9,0,0,0,.6-2.073,4.148,4.148,0,0,0-4.23-4.049Z" transform="translate(0 0)" fill="#0e5f02" stroke="#0e5f02" stroke-width="0.5"/>
    <path id="Path_29921" data-name="Path 29921" d="M16.547,14.184a2.2,2.2,0,1,1,2.275-2.2,2.239,2.239,0,0,1-2.275,2.2Zm0-3.732a1.536,1.536,0,1,0,1.611,1.534,1.576,1.576,0,0,0-1.611-1.534Z" transform="translate(-3.975 -3.791)" fill="#0e5f02" stroke="#0e5f02" stroke-width="0.5"/>
  </g>
</svg>
