<svg xmlns="http://www.w3.org/2000/svg" width="82.359" height="82.357" viewBox="0 0 82.359 82.357">
  <g id="Group_57343" data-name="Group 57343" transform="translate(-260.55 -292.563)">
    <g id="Group_57343-2" data-name="Group 57343" transform="translate(260.55 292.563)">
      <g id="Group_57338" data-name="Group 57338">
        <path id="Path_41241" data-name="Path 41241" d="M104.761,306.024a41.178,41.178,0,1,1,0,58.235,41.179,41.179,0,0,1,0-58.235" transform="translate(-92.7 -293.964)" fill="#ffcb4b"/>
        <path id="Path_41242" data-name="Path 41242" d="M162.357,306.451a41.185,41.185,0,0,1-56.245,57.279,41.182,41.182,0,1,0,56.245-57.279" transform="translate(-99.632 -300.418)" fill="#fdc453"/>
        <path id="Path_41243" data-name="Path 41243" d="M101.243,342.741a38.231,38.231,0,0,1,68.538-23.306A38.235,38.235,0,1,0,106.323,361.8a38.057,38.057,0,0,1-5.08-19.055" transform="translate(-95.645 -297.217)" fill="#ffd77f"/>
        <path id="Path_41244" data-name="Path 41244" d="M146.325,353.049c0,2.824-1.359,5.114-3.034,5.114s-3.034-2.29-3.034-5.114,1.359-5.114,3.034-5.114,3.034,2.289,3.034,5.114" transform="translate(-117.282 -321.861)" fill="#303030"/>
        <path id="Path_41245" data-name="Path 41245" d="M209.128,353.049c0,2.824-1.359,5.114-3.034,5.114s-3.034-2.29-3.034-5.114,1.359-5.114,3.034-5.114,3.034,2.289,3.034,5.114" transform="translate(-149.744 -321.861)" fill="#303030"/>
      </g>
      <path id="Path_41459" data-name="Path 41459" d="M1323.307,612.39a19.063,19.063,0,0,0-8.945-4.76,24.158,24.158,0,0,0-10.208-.187,25.562,25.562,0,0,0-9.374,3.886,22.2,22.2,0,0,0-6.885,7.239,1.111,1.111,0,0,0,1.455,1.548l1.037-.513c2.437-1.206,4.74-2.346,7.076-3.257a44.31,44.31,0,0,1,7.955-2.362,39.2,39.2,0,0,1,8.2-.7,51.355,51.355,0,0,1,8.71.991,1.11,1.11,0,0,0,.982-1.881" transform="translate(-1264.642 -556.706)" fill="#5e4939"/>
    </g>
  </g>
</svg>
