<svg xmlns="http://www.w3.org/2000/svg" width="23.187" height="16.476" viewBox="0 0 23.187 16.476">
  <g id="Group_52115" data-name="Group 52115" transform="translate(-16 -49.74)">
    <g id="Group_5072" data-name="Group 5072" transform="translate(16 49.74)">
      <path id="Path_4458" data-name="Path 4458" d="M503.579,153.819q-5.317,0-10.634,0a1.252,1.252,0,0,1-.388-.045.912.912,0,0,1-.559-.958.869.869,0,0,1,.733-.822c.073-.006.147,0,.221,0h21.267a1.522,1.522,0,0,1,.318.016.905.905,0,0,1,.642.946.867.867,0,0,1-.747.866c-.082.006-.164,0-.245,0Z" transform="translate(-491.995 -151.988)"/>
    </g>
    <path id="Path_4459" data-name="Path 4459" d="M499.118,247.983q3.045,0,6.09,0a.917.917,0,1,1-.015,1.83c-1.2,0-2.4,0-3.6,0H493.1a1.852,1.852,0,0,1-.37-.02.912.912,0,0,1,.185-1.807c1.144-.007,2.287,0,3.431,0Z" transform="translate(-475.996 -190.921)"/>
    <path id="Path_4460" data-name="Path 4460" d="M503.586,343.982q5,0,10,0c1.141,0,1.882.625,1.492,1.241a1.7,1.7,0,0,1-1.465.587q-2.687,0-5.374,0H493.8a4.989,4.989,0,0,1-.6-.02c-.749-.093-1.269-.529-1.194-.986s.707-.818,1.49-.821c1.76-.007,3.52,0,5.28,0Z" transform="translate(-475.996 -279.597)"/>
  </g>
</svg>
