<svg xmlns="http://www.w3.org/2000/svg" width="42" height="42" viewBox="0 0 42 42">
  <g id="Group_57456" data-name="Group 57456" transform="translate(-16 -164)">
    <circle id="Ellipse_717" data-name="Ellipse 717" cx="21" cy="21" r="21" transform="translate(16 164)" fill="#ffebeb"/>
    <g id="Group_52069" data-name="Group 52069" transform="translate(28.001 177)">
      <path id="Path_29927" data-name="Path 29927" d="M11.765,6.5a.765.765,0,0,1,.765.765v4.589a.765.765,0,1,1-1.53,0V7.265A.765.765,0,0,1,11.765,6.5Z" transform="translate(-2.765 -2.32)" fill="#fa5658"/>
      <path id="Path_29928" data-name="Path 29928" d="M11.647,17.795A1.147,1.147,0,1,0,10.5,16.647,1.147,1.147,0,0,0,11.647,17.795Z" transform="translate(-2.647 -4.46)" fill="#fa5658"/>
      <path id="Path_29929" data-name="Path 29929" d="M7.365,1.936a1.886,1.886,0,0,1,3.259,0l7.111,12.246A1.877,1.877,0,0,1,16.105,17H1.883A1.877,1.877,0,0,1,.254,14.183Zm1.967.775a.4.4,0,0,0-.676,0L1.545,14.957a.354.354,0,0,0,.338.519H16.105a.354.354,0,0,0,.338-.519Z" transform="translate(0.006 -1)" fill="#fa5658" fill-rule="evenodd"/>
    </g>
  </g>
</svg>
