<svg xmlns="http://www.w3.org/2000/svg" width="22.252" height="26.729" viewBox="0 0 22.252 26.729">
  <path id="notification-bell-svgrepo-com_1_" data-name="notification-bell-svgrepo-com (1)" d="M10.932,23.662h4.532a2.266,2.266,0,0,1-4.532,0ZM3.086,20.7a1.133,1.133,0,0,1,.246-1.235l1.934-1.934V11.2a7.939,7.939,0,0,1,6.8-7.841V2.133a1.133,1.133,0,0,1,2.266,0V3.357a7.939,7.939,0,0,1,6.8,7.841v6.33l1.934,1.934a1.133,1.133,0,0,1-.8,1.934H4.133a1.133,1.133,0,0,1-1.047-.7Z" transform="translate(-2.072 -0.1)" fill="none" stroke="#0e5f02" stroke-width="1.8"/>
</svg>
