<svg xmlns="http://www.w3.org/2000/svg" width="42" height="42" viewBox="0 0 42 42">
  <g id="Group_57457" data-name="Group 57457" transform="translate(-16 -271)">
    <circle id="Ellipse_718" data-name="Ellipse 718" cx="21" cy="21" r="21" transform="translate(16 271)" fill="#d9ffe9"/>
    <g id="deliver" transform="translate(25 280)">
      <g id="Group_56061" data-name="Group 56061">
        <path id="Path_40240" data-name="Path 40240" d="M17.6,22a3.55,3.55,0,0,1-3.5-3H9a3.474,3.474,0,0,1-3.5,3A3.55,3.55,0,0,1,2,19H0V3H16V7h3.4L24,11.6V19H21A3.448,3.448,0,0,1,17.6,22Zm-1.5-3.5A1.5,1.5,0,1,0,17.6,17,1.538,1.538,0,0,0,16.1,18.5ZM5.6,17a1.5,1.5,0,0,0,0,3,1.5,1.5,0,0,0,0-3Zm15.1,0H22V12.4L18.7,9H16.1v6.3a4.013,4.013,0,0,1,1.5-.3A3.311,3.311,0,0,1,20.7,17Zm-12,0H14V5H2V17h.3a3.563,3.563,0,0,1,3.2-2A3.454,3.454,0,0,1,8.7,17Z" fill="#4ab572"/>
      </g>
    </g>
  </g>
</svg>
