<svg xmlns="http://www.w3.org/2000/svg" width="39" height="39" viewBox="0 0 39 39">
  <g id="Group_57424" data-name="Group 57424" transform="translate(-24 -832)">
    <circle id="Ellipse_652" data-name="Ellipse 652" cx="19.5" cy="19.5" r="19.5" transform="translate(24 832)" fill="#fff"/>
    <g id="icons_Q2" data-name="icons Q2" transform="translate(32.803 842.551)">
      <g id="Group_7661" data-name="Group 7661">
        <path id="Path_5548" data-name="Path 5548" d="M31.969,16.2c-.985-1.219-4.642-5.2-9.988-5.2a10.972,10.972,0,0,0-1.782.141l1.688,1.735h.094c4.126,0,7.174,2.907,8.3,4.22a15.8,15.8,0,0,1-2.157,2.016l1.313,1.313a14.114,14.114,0,0,0,2.532-2.438,1.407,1.407,0,0,0,0-1.782Z" transform="translate(-11.676 -8.89)" fill="#0e5f02"/>
        <path id="Path_5549" data-name="Path 5549" d="M14.859,15.925a2.72,2.72,0,0,0,.281-1.219,2.813,2.813,0,0,0-2.813-2.813,2.72,2.72,0,0,0-1.219.281L5.622,6.688A.938.938,0,0,0,4.309,8l2.2,2.251A15.052,15.052,0,0,0,2.34,13.815a1.407,1.407,0,0,0,0,1.782c.985,1.219,4.642,5.2,9.988,5.2a10.785,10.785,0,0,0,3.986-.75l2.72,2.673a.938.938,0,1,0,1.313-1.313Zm-2.532,3c-4.126,0-7.174-2.907-8.3-4.22A13.926,13.926,0,0,1,7.92,11.611L9.8,13.487a2.72,2.72,0,0,0-.281,1.219,2.813,2.813,0,0,0,2.813,2.813,2.72,2.72,0,0,0,1.219-.281l1.313,1.313a8.956,8.956,0,0,1-2.532.375Z" transform="translate(-2.022 -6.5)" fill="#0e5f02"/>
      </g>
    </g>
  </g>
</svg>
