<svg xmlns="http://www.w3.org/2000/svg" width="82.359" height="82.357" viewBox="0 0 82.359 82.357">
  <g id="Group_57344" data-name="Group 57344" transform="translate(-3762.529 -479.101)">
    <path id="Path_41311" data-name="Path 41311" d="M333.185,88.046a41.179,41.179,0,1,1,0,58.235,41.179,41.179,0,0,1,0-58.235" transform="translate(3441.405 403.116)" fill="#ffcb4b"/>
    <path id="Path_41312" data-name="Path 41312" d="M390.782,88.469a41.185,41.185,0,0,1-56.245,57.279,41.182,41.182,0,1,0,56.245-57.279" transform="translate(3434.472 396.663)" fill="#fdc453"/>
    <path id="Path_41313" data-name="Path 41313" d="M329.668,124.759a38.232,38.232,0,0,1,68.539-23.306,38.235,38.235,0,1,0-63.458,42.362,38.057,38.057,0,0,1-5.08-19.056" transform="translate(3438.459 399.864)" fill="#ffd77f"/>
    <path id="Path_41314" data-name="Path 41314" d="M374.75,135.067c0,2.825-1.359,5.114-3.034,5.114s-3.034-2.289-3.034-5.114,1.359-5.114,3.034-5.114,3.034,2.29,3.034,5.114" transform="translate(3416.823 375.221)" fill="#303030"/>
    <path id="Path_41315" data-name="Path 41315" d="M437.553,135.067c0,2.825-1.359,5.114-3.035,5.114s-3.034-2.289-3.034-5.114,1.359-5.114,3.034-5.114,3.035,2.29,3.035,5.114" transform="translate(3384.362 375.221)" fill="#303030"/>
    <path id="Path_41316" data-name="Path 41316" d="M441.909,114.686c-.443-.129-.874-.25-1.3-.368-.925-.259-1.8-.5-2.644-.8a23.464,23.464,0,0,1-3.47-1.475,20.63,20.63,0,0,1-3.136-2.035,31.079,31.079,0,0,1-2.984-2.735.179.179,0,0,0-.306.134,7.851,7.851,0,0,0,1.609,4.2,10.273,10.273,0,0,0,3.484,2.962,10.843,10.843,0,0,0,4.209,1.21l.169.011a9.069,9.069,0,0,0,4.39-.779.179.179,0,0,0-.027-.333" transform="translate(3386.124 386.969)" fill="#414042"/>
    <path id="Path_41317" data-name="Path 41317" d="M355.878,114.686c.443-.129.874-.25,1.3-.368.925-.259,1.8-.5,2.644-.8a23.462,23.462,0,0,0,3.47-1.475,20.632,20.632,0,0,0,3.136-2.035,31.02,31.02,0,0,0,2.984-2.735.179.179,0,0,1,.306.134,7.849,7.849,0,0,1-1.609,4.2,10.273,10.273,0,0,1-3.484,2.962,10.844,10.844,0,0,1-4.209,1.21l-.17.011a9.069,9.069,0,0,1-4.39-.779.179.179,0,0,1,.027-.333" transform="translate(3423.508 386.969)" fill="#414042"/>
    <path id="Path_41318" data-name="Path 41318" d="M373.413,181.8c-.431.049-.677-.483-.673-.881a12.559,12.559,0,0,1,1.45-5.555,15.534,15.534,0,0,1,3.708-4.587,17.637,17.637,0,0,1,11.084-4.02,16.767,16.767,0,0,1,11.158,4,14.052,14.052,0,0,1,5.088,10.154c.007.421-.277.964-.746.88-.387-.069-.7-.595-.987-.831-.439-.365-.895-.712-1.362-1.041a27.614,27.614,0,0,0-2.917-1.783,21.877,21.877,0,0,0-12.128-2.68,20.92,20.92,0,0,0-7.679,2.264,26.849,26.849,0,0,0-4.076,2.6c-.486.372-1.284,1.37-1.883,1.483l-.038.006" transform="translate(3414.725 356.199)" fill="#5e4939"/>
  </g>
</svg>
