<svg xmlns="http://www.w3.org/2000/svg" width="20.083" height="20.222" viewBox="0 0 20.083 20.222">
  <path id="reschedule-date-icon" d="M12.02.7a.787.787,0,0,1,.852-.7.785.785,0,0,1,.852.7V3.756a.787.787,0,0,1-.852.7.785.785,0,0,1-.852-.7Zm2.42,12.848a.461.461,0,1,1,.922,0v2.022l1.5.658a.46.46,0,1,1-.371.843L14.739,16.3a.462.462,0,0,1-.3-.432V13.547Zm4.242-1.887a.467.467,0,0,1-.193.516l-1.049.553a.4.4,0,1,1-.375-.713l.232-.122a3.99,3.99,0,0,0-4.845.61l0,0a3.981,3.981,0,0,0,2.816,6.8h.015c.163,0,.318-.018.479-.022a.462.462,0,0,1,.023.92c-.165.017-.334.024-.5.025h-.017A4.9,4.9,0,0,1,11.8,11.855l0,0a4.9,4.9,0,0,1,5.852-.815l-.068-.225a.4.4,0,1,1,.772-.23l.324,1.077ZM19,16.694c-.037.1-.076.2-.12.3a.461.461,0,0,0,.845.37,5.219,5.219,0,0,0,.318-.956.461.461,0,0,0-.9-.2A4.542,4.542,0,0,1,19,16.694ZM17.262,18.8a.461.461,0,0,0,.439.811,4.584,4.584,0,0,0,.842-.6.461.461,0,0,0-.617-.685,3.817,3.817,0,0,1-.665.478Zm1.909-4.236a.461.461,0,0,0,.906-.174l0-.009a5.268,5.268,0,0,0-.294-.968.461.461,0,0,0-.877.268.558.558,0,0,0,.027.089A4.293,4.293,0,0,1,19.171,14.565ZM2.321,9.9c-.049,0-.092-.212-.092-.472s.038-.471.092-.471H4.647c.049,0,.092.212.092.471S4.7,9.9,4.647,9.9Zm3.708,0c-.049,0-.092-.212-.092-.472s.038-.471.092-.471H8.355c.048,0,.091.212.091.471s-.038.472-.091.472Zm3.708,0c-.048,0-.091-.212-.091-.472s.038-.471.091-.471h2.326c.048,0,.091.21.091.469a7.053,7.053,0,0,0-.671.474H9.737ZM2.326,12.6c-.048,0-.092-.212-.092-.473s.038-.473.092-.473H4.652c.048,0,.091.212.091.473s-.038.473-.091.473Zm3.708,0c-.048,0-.091-.212-.091-.473s.038-.473.091-.473H8.36c.049,0,.092.212.092.473s-.038.473-.092.473Zm-3.7,2.708c-.048,0-.091-.212-.091-.473s.038-.473.091-.473H4.657c.049,0,.092.212.092.473s-.038.473-.092.473Zm3.708,0c-.049,0-.092-.212-.092-.473s.038-.473.092-.473H8.365c.049,0,.092.212.092.473s-.038.473-.092.473ZM4.364.7A.787.787,0,0,1,5.216,0a.785.785,0,0,1,.852.7V3.756a.788.788,0,0,1-.852.7.785.785,0,0,1-.852-.7ZM.939,6.685H17.173V3.165a.424.424,0,0,0-.126-.3.433.433,0,0,0-.3-.126H15.187a.473.473,0,1,1,0-.946h1.556A1.379,1.379,0,0,1,18.12,3.167V8.756a7.118,7.118,0,0,0-.958-.257V7.625H.939v9.116a.426.426,0,0,0,.126.3.435.435,0,0,0,.3.126H9.083a6.959,6.959,0,0,0,.331.954H1.377a1.37,1.37,0,0,1-.973-.4A1.359,1.359,0,0,1,0,16.75V3.168A1.379,1.379,0,0,1,1.377,1.791H3.039a.473.473,0,1,1,0,.946H1.377a.425.425,0,0,0-.3.126.435.435,0,0,0-.126.3v3.52H.939v0Zm6.493-3.95a.473.473,0,1,1,0-.946H10.6a.473.473,0,0,1,0,.946Z"/>
</svg>
